<svg width="260" height="77" viewBox="0 0 260 77" fill="none" xmlns="http://www.w3.org/2000/svg">
<g filter="url(#filter0_d_42_738)">
<path d="M38.0007 67.1987C40.2282 66.6812 42.2875 65.9646 42.5817 65.6064C43.8846 64.2529 53.467 39.771 57.6698 26.9528C58.4263 24.6042 59.2248 22.8924 59.435 23.1313C59.6451 23.3303 61.9987 31.4909 64.6885 41.1643C70.2782 61.1479 72.4636 68.6716 72.6318 68.8706C73.0941 69.1891 82.2982 67.9152 85.5764 67.0395L89.4009 66.0044L91.5023 61.0285C99.4036 42.7964 106.759 22.3749 111.298 5.97402L112.726 0.798984H104.195C95.7892 0.798984 95.6631 0.798984 95.4109 1.83399C95.2428 2.47092 94.8225 4.66036 94.3602 6.77018C93.0994 13.3385 88.8546 28.8636 86.0807 37.3427C84.6518 41.841 83.2648 46.2597 83.0127 47.2549C82.7185 48.2103 82.2982 49.0064 82.046 49.0064C81.5417 49.0064 81.2055 47.8122 74.523 23.2109C71.455 11.786 68.7231 1.91361 68.513 1.23687C68.0927 0.0824404 67.9666 0.0426323 64.016 0.122248C59.9393 0.162056 56.1147 0.798984 51.8699 1.99322L49.5584 2.63015L49.5163 6.61095C49.5163 11.1491 47.1628 19.3097 41.8672 33.6406C37.034 46.7374 36.0674 49.0463 35.563 48.9268C35.0587 48.7676 33.4616 42.9158 26.9473 17.4387C25.056 10.1539 23.3329 3.42631 23.0807 2.51073L22.5764 0.838792H13.3302C8.2028 0.838792 4 0.998024 4 1.15726C4 1.55534 9.2535 18.2349 13.5824 31.6104C17.3229 43.0751 19.6344 50.3201 20.1388 52.1513C20.559 53.5446 25.014 67.4375 25.3923 68.4327C25.6024 69.1095 32.8732 68.4327 38.0007 67.1987ZM154.712 68.4327C164.169 66.8006 171.566 62.6606 177.534 55.5748C185.729 45.9412 187.62 33.0833 182.745 20.1457C180.055 13.1395 175.348 6.49152 170.011 2.23207C166.06 -0.872952 165.808 -0.833143 165.976 2.94861C166.144 7.20807 165.514 7.56634 161.521 5.8546C159.924 5.17786 158.495 4.70017 158.327 4.8594C158.159 4.93901 158.495 6.01383 158.915 7.16826C159.378 8.28288 159.714 9.55674 159.714 9.95482C159.714 10.3927 158.495 12.1841 157.024 14.0152C154.418 17.2795 154.292 17.3591 149.879 18.7524C147.4 19.5485 145.34 20.4243 145.256 20.7428C145.004 21.4593 147.946 24.5643 149.711 25.4799C150.468 25.7984 152.485 26.1567 154.082 26.1567C166.522 26.1567 171.229 42.2789 161.479 51.7532C158.285 54.8184 154.839 56.4505 149.837 57.2467C141.222 58.6002 131.975 54.5398 127.1 47.3345C125.335 44.6674 124.999 44.4683 124.074 45.3441C123.36 46.0208 124.242 47.8918 126.428 50.559C128.655 53.2261 128.697 55.3359 126.596 55.3359C125.503 55.3359 124.746 54.7786 123.233 52.7882C117.518 45.583 115.626 36.4669 117.728 26.8334C118.442 23.5293 118.484 22.8128 117.896 22.1361C115.08 18.8718 112.012 26.6344 112.516 35.9892C113.315 51.9522 126.091 65.6064 142.861 68.4327C147.484 69.1891 150.089 69.1891 154.712 68.4327ZM256 66.92C256 66.522 254.151 63.815 251.797 60.8692C249.486 57.9632 244.232 51.2755 240.197 46.0607C236.121 40.8856 232.548 36.2679 232.254 35.7902C231.75 35.0338 232.296 34.1581 235.953 29.819C241.71 23.0118 247.258 15.0104 251.461 7.68576C253.436 4.34189 254.991 1.43591 254.991 1.23687C254.991 0.998024 250.999 0.838792 246.123 0.838792H237.298L236.247 3.06804C233.935 8.04404 224.017 23.7682 223.26 23.6886C223.092 23.6886 220.192 20.0262 216.704 15.5279C213.215 11.0694 209.265 5.97402 207.836 4.22247L205.314 1.07764L195.648 0.918408C187.873 0.838792 185.981 0.918408 185.981 1.43591C185.981 1.75438 187.494 4.02343 189.428 6.3721C191.277 8.76058 193.883 12.1045 195.143 13.7764C196.404 15.4483 200.439 20.6632 204.053 25.3207L210.694 33.7998L207.5 36.9844C200.649 43.911 192.916 54.2213 187.999 63.0189L185.393 67.6366H194.681H203.969L205.398 64.9296C208.508 58.8788 217.881 44.7868 218.847 44.747C219.015 44.747 220.276 46.1801 221.663 48.0112C223.008 49.7628 227.043 54.9378 230.573 59.4361L237.003 67.6764L245.619 67.756C255.201 67.9152 256 67.8754 256 66.92ZM142.608 52.6688C142.608 52.5095 141.053 51.4745 139.162 50.2803C133.026 46.4189 130.084 41.6022 129.622 34.4765C129.538 32.3667 129.286 30.3365 129.159 29.9384C128.613 28.4257 127.941 30.6948 127.941 33.9988C127.941 40.6866 131.681 47.1753 137.565 50.9172C140.213 52.5892 142.608 53.3853 142.608 52.6688ZM124.158 38.2583C124.326 37.8204 124.452 35.8698 124.452 33.7998C124.452 26.7936 126.722 21.6186 131.849 16.7222C135.211 13.4579 138.616 11.6666 143.323 10.3927C145.803 9.71597 146.391 9.39751 146.517 8.48192C146.727 7.44692 146.559 7.44692 144.205 7.60615C139.75 8.04404 133.068 11.5073 129.075 15.5677C126.47 18.1951 123.36 23.4497 122.309 26.9926C121.258 30.655 121.048 37.5417 122.015 38.4573C122.897 39.2535 123.78 39.1739 124.158 38.2583ZM132.942 23.1711C133.74 22.0166 134.917 20.703 135.506 20.2253C136.556 19.3097 136.977 18.0358 136.178 18.0358C135.169 18.0358 130.546 23.4497 130.546 24.5643C130.504 25.7586 131.471 25.2013 132.942 23.1711ZM126.974 12.3035C128.907 10.4723 130.504 8.68096 130.504 8.28288C130.504 7.24788 128.487 6.05364 127.478 6.57114C125.629 7.52653 120.922 12.5025 120.922 13.5375C120.922 14.4929 122.015 15.6076 123.023 15.6474C123.233 15.6474 124.999 14.1745 126.974 12.3035ZM139.793 4.10305C140.843 2.66996 140.003 1.23687 138.237 1.43591C136.304 1.63495 135.632 2.94861 136.767 4.14285C137.943 5.41671 138.826 5.3769 139.793 4.10305Z" fill="white"/>
</g>
<defs>
<filter id="filter0_d_42_738" x="0" y="0" width="260" height="77" filterUnits="userSpaceOnUse" color-interpolation-filters="sRGB">
<feFlood flood-opacity="0" result="BackgroundImageFix"/>
<feColorMatrix in="SourceAlpha" type="matrix" values="0 0 0 0 0 0 0 0 0 0 0 0 0 0 0 0 0 0 127 0" result="hardAlpha"/>
<feOffset dy="4"/>
<feGaussianBlur stdDeviation="2"/>
<feComposite in2="hardAlpha" operator="out"/>
<feColorMatrix type="matrix" values="0 0 0 0 0 0 0 0 0 0 0 0 0 0 0 0 0 0 0.25 0"/>
<feBlend mode="normal" in2="BackgroundImageFix" result="effect1_dropShadow_42_738"/>
<feBlend mode="normal" in="SourceGraphic" in2="effect1_dropShadow_42_738" result="shape"/>
</filter>
</defs>
</svg>
