<svg width="817" height="817" viewBox="0 0 817 817" fill="none" xmlns="http://www.w3.org/2000/svg">
<path d="M548.195 153.705C502.956 128.848 451.91 116.494 400.31 117.915C348.711 119.335 298.422 134.479 254.618 161.787C210.814 189.096 175.078 227.583 151.087 273.288C127.096 318.993 115.717 370.265 118.119 421.828C120.522 473.391 136.621 523.382 164.759 566.658C192.897 609.933 232.057 644.93 278.211 668.046C324.365 691.163 375.844 701.564 427.352 698.179C478.86 694.795 528.536 677.747 571.267 648.79L522.641 577.031C492.66 597.348 457.807 609.309 421.668 611.683C385.53 614.058 349.412 606.76 317.03 590.542C284.648 574.323 257.173 549.769 237.431 519.407C217.689 489.044 206.394 453.97 204.708 417.793C203.022 381.616 211.006 345.643 227.839 313.576C244.671 281.509 269.744 254.506 300.477 235.346C331.21 216.186 366.493 205.561 402.696 204.564C438.898 203.568 474.713 212.235 506.453 229.675L548.195 153.705Z" fill="#1B0972"/>
<path d="M692.408 366.955C732.481 384.388 732.481 441.222 692.408 458.654L274.5 640.453C241.477 654.819 204.555 630.616 204.555 594.603L204.555 231.006C204.555 194.994 241.477 170.791 274.5 185.157L692.408 366.955Z" fill="#1B0972"/>
<path d="M277.7 458.72L175.805 345.364H281.703L386.11 458.72H277.7Z" fill="white"/>
<path d="M417.431 458.72L330.923 345.364H432.347L527.804 458.72H417.431Z" fill="white"/>
<path d="M281.025 336.415H175.805C229.533 292.719 287.665 280.213 366.72 267.805L281.025 336.415Z" fill="white"/>
<path d="M527.54 467.184H417.215L336.625 535.633C409.321 533.099 453.802 522.258 527.54 467.184Z" fill="white"/>
</svg>
